# xmcd
#
# Track frame offsets: 
#        150
#        34056
#        54819
#        64693
#        77372
#        87478
#        98358
#        111117
#        122798
#        142798
#        161396
#        174304
#        198884
#        211876
#        222476
#        233280
#        245982
#        257991
#        269328
#        281164
#
# Disc length: 3913 seconds
#
# Revision: 1
# Processed by: cddbd v1.5.2PL0 Copyright (c) Steve Scherf et al.
# Submitted via: ExactAudioCopyFreeDBPlugin 1.0
#
DISCID=0e0f4714
DTITLE=The Staple Singers - Faith and Grace:  A Family Journey, 1953-197
DTITLE=6
DYEAR=2015
DGENRE=Soul
TTITLE0=A Hard Rain's Gonna Fall
TTITLE1=Masters of War
TTITLE2=What Are They Doing (In Heaven Today)
TTITLE3=Wish I Had Answered (live at Newport)
TTITLE4=I'll Fly Away
TTITLE5=Tell Him What You Want
TTITLE6=Be Careful of the Stones You Throw
TTITLE7=Samson and Delilah
TTITLE8=As an Eagle Stirreth Her Nest
TTITLE9=Freedom Highway (live)
TTITLE10=Why (Am I Treated So Bad)
TTITLE11=John Brown
TTITLE12=Waiting for My Child
TTITLE13=It's Been a Change
TTITLE14=For What It's Worth
TTITLE15=Let's Get Together
TTITLE16=Crying in the Chapel
TTITLE17=Long Walk to D.C.
TTITLE18=Got to Be Some Changes
TTITLE19=Slow Train
EXTD=
EXTT0=
EXTT1=
EXTT2=
EXTT3=
EXTT4=
EXTT5=
EXTT6=
EXTT7=
EXTT8=
EXTT9=
EXTT10=
EXTT11=
EXTT12=
EXTT13=
EXTT14=
EXTT15=
EXTT16=
EXTT17=
EXTT18=
EXTT19=
PLAYORDER=
